<svg width="95" height="19" viewBox="0 0 95 19" fill="none" xmlns="http://www.w3.org/2000/svg">
<path d="M8.216 18.288C6.632 18.288 5.232 17.952 4.016 17.28C2.8 16.592 1.856 15.616 1.184 14.352C0.512 13.088 0.176 11.608 0.176 9.912C0.176 8.328 0.536 6.896 1.256 5.616C1.976 4.336 2.96 3.328 4.208 2.592C5.456 1.856 6.848 1.488 8.384 1.488C9.616 1.488 10.768 1.744 11.84 2.256C12.912 2.752 13.76 3.4 14.384 4.2L11.72 6.888C11.32 6.424 10.864 6.072 10.352 5.832C9.856 5.576 9.264 5.448 8.576 5.448C7.376 5.448 6.416 5.864 5.696 6.696C4.976 7.512 4.616 8.584 4.616 9.912C4.616 11.256 4.96 12.336 5.648 13.152C6.336 13.952 7.24 14.352 8.36 14.352C9.352 14.352 10.216 14.176 10.952 13.824V12.24H8.24V8.904H14.648V15.912C13.88 16.632 12.904 17.208 11.72 17.64C10.552 18.072 9.384 18.288 8.216 18.288ZM23.6956 18.288C22.4156 18.288 21.2636 18.016 20.2396 17.472C19.2316 16.928 18.4396 16.152 17.8636 15.144C17.3036 14.136 17.0236 12.968 17.0236 11.64C17.0236 10.36 17.3116 9.224 17.8876 8.232C18.4796 7.24 19.2796 6.464 20.2876 5.904C21.3116 5.344 22.4476 5.064 23.6956 5.064C24.9756 5.064 26.1276 5.344 27.1516 5.904C28.1756 6.448 28.9756 7.224 29.5516 8.232C30.1276 9.224 30.4156 10.368 30.4156 11.664C30.4156 12.96 30.1196 14.112 29.5276 15.12C28.9516 16.128 28.1516 16.912 27.1276 17.472C26.1036 18.016 24.9596 18.288 23.6956 18.288ZM23.6716 14.664C24.4556 14.664 25.0796 14.392 25.5436 13.848C26.0076 13.304 26.2396 12.576 26.2396 11.664C26.2396 10.768 26.0156 10.048 25.5676 9.504C25.1196 8.96 24.5036 8.688 23.7196 8.688C22.9516 8.688 22.3356 8.96 21.8716 9.504C21.4236 10.032 21.1996 10.744 21.1996 11.64C21.1996 12.552 21.4236 13.288 21.8716 13.848C22.3196 14.392 22.9196 14.664 23.6716 14.664ZM40.4381 18.264C38.9021 18.264 37.5421 17.92 36.3581 17.232C35.1901 16.528 34.2781 15.544 33.6221 14.28C32.9821 13 32.6621 11.536 32.6621 9.888C32.6621 8.304 32.9981 6.88 33.6701 5.616C34.3581 4.336 35.2941 3.336 36.4781 2.616C37.6781 1.88 39.0221 1.512 40.5101 1.512C41.6461 1.512 42.6941 1.744 43.6541 2.208C44.6301 2.656 45.4461 3.272 46.1021 4.056L44.1821 6C43.1901 4.88 41.9981 4.32 40.6061 4.32C39.6621 4.32 38.8301 4.56 38.1101 5.04C37.3901 5.504 36.8301 6.16 36.4301 7.008C36.0301 7.84 35.8301 8.8 35.8301 9.888C35.8301 10.96 36.0301 11.92 36.4301 12.768C36.8461 13.6 37.4141 14.256 38.1341 14.736C38.8541 15.2 39.6701 15.432 40.5821 15.432C42.0061 15.432 43.2701 14.856 44.3741 13.704L46.2701 15.672C45.5501 16.488 44.6941 17.128 43.7021 17.592C42.7261 18.04 41.6381 18.264 40.4381 18.264ZM54.3239 18.264C53.1079 18.264 52.0119 17.992 51.0359 17.448C50.0759 16.888 49.3239 16.112 48.7799 15.12C48.2359 14.128 47.9639 12.984 47.9639 11.688C47.9639 10.44 48.2359 9.328 48.7799 8.352C49.3399 7.36 50.0999 6.584 51.0599 6.024C52.0359 5.464 53.1239 5.184 54.3239 5.184C55.5399 5.184 56.6359 5.464 57.6119 6.024C58.5879 6.568 59.3479 7.336 59.8919 8.328C60.4519 9.32 60.7319 10.448 60.7319 11.712C60.7319 12.992 60.4519 14.128 59.8919 15.12C59.3319 16.112 58.5639 16.888 57.5879 17.448C56.6119 17.992 55.5239 18.264 54.3239 18.264ZM54.3239 15.648C55.3639 15.648 56.1959 15.296 56.8199 14.592C57.4439 13.888 57.7559 12.928 57.7559 11.712C57.7559 10.528 57.4439 9.576 56.8199 8.856C56.2119 8.136 55.3879 7.776 54.3479 7.776C53.3079 7.776 52.4759 8.136 51.8519 8.856C51.2439 9.56 50.9399 10.504 50.9399 11.688C50.9399 12.904 51.2439 13.872 51.8519 14.592C52.4599 15.296 53.2839 15.648 54.3239 15.648ZM63.5154 5.328C63.5154 3.712 63.9794 2.44 64.9074 1.512C65.8354 0.567999 67.0674 0.0959988 68.6034 0.0959988C69.2914 0.0959988 69.9394 0.215999 70.5474 0.456C71.1714 0.696 71.7234 1.024 72.2034 1.44L70.9074 3.288C70.3154 2.808 69.6434 2.568 68.8914 2.568C68.1394 2.568 67.5554 2.792 67.1394 3.24C66.7234 3.672 66.5154 4.28 66.5154 5.064V5.448H71.4834V7.968H66.5154V18H63.5154V5.328ZM73.7107 5.328C73.7107 3.712 74.1747 2.44 75.1027 1.512C76.0307 0.567999 77.2627 0.0959988 78.7987 0.0959988C79.4867 0.0959988 80.1347 0.215999 80.7427 0.456C81.3667 0.696 81.9187 1.024 82.3987 1.44L81.1027 3.288C80.5107 2.808 79.8387 2.568 79.0867 2.568C78.3347 2.568 77.7507 2.792 77.3347 3.24C76.9187 3.672 76.7107 4.28 76.7107 5.064V5.448H81.6787V7.968H76.7107V18H73.7107V5.328ZM89.4328 18.264C88.1368 18.264 87.0088 17.984 86.0488 17.424C85.1048 16.848 84.3768 16.064 83.8648 15.072C83.3528 14.064 83.0968 12.92 83.0968 11.64C83.0968 10.424 83.3528 9.328 83.8648 8.352C84.3928 7.36 85.1208 6.584 86.0488 6.024C86.9768 5.464 88.0168 5.184 89.1688 5.184C90.3208 5.184 91.3288 5.456 92.1928 6C93.0568 6.544 93.7128 7.312 94.1608 8.304C94.6248 9.296 94.8568 10.44 94.8568 11.736V12.552H85.8808C86.0088 13.512 86.4008 14.296 87.0568 14.904C87.7288 15.512 88.5688 15.816 89.5768 15.816C90.8248 15.816 91.8568 15.392 92.6728 14.544L94.4008 16.152C93.0408 17.56 91.3848 18.264 89.4328 18.264ZM92.0248 10.464C91.9608 9.536 91.6808 8.816 91.1848 8.304C90.6888 7.776 89.9928 7.512 89.0968 7.512C88.2648 7.512 87.5688 7.776 87.0088 8.304C86.4648 8.832 86.1048 9.552 85.9288 10.464H92.0248Z" fill="black"/>
</svg>
